<svg id="svg" version="1.1" xmlns="http://www.w3.org/2000/svg" xmlns:xlink="http://www.w3.org/1999/xlink" width="400" height="400" viewBox="0, 0, 400,400"><g id="svgg"><path id="path0" d="M140.234 198.633 L 140.234 217.969 144.151 217.969 L 148.068 217.969 147.960 205.078 C 147.900 197.988,147.983 192.187,148.145 192.187 C 148.306 192.187,148.438 192.354,148.438 192.559 C 148.438 192.932,150.250 195.847,151.608 197.656 C 152.011 198.193,152.716 199.336,153.176 200.195 C 153.635 201.055,154.126 201.846,154.266 201.953 C 154.521 202.148,159.306 209.603,163.381 216.151 L 164.457 217.881 168.166 217.936 L 171.875 217.992 171.875 198.644 L 171.875 179.297 168.064 179.297 L 164.253 179.297 164.396 191.992 C 164.549 205.471,164.495 205.816,162.741 202.631 C 162.121 201.506,159.235 196.982,156.328 192.578 C 153.421 188.174,150.281 183.384,149.352 181.934 L 147.661 179.297 143.948 179.297 L 140.234 179.297 140.234 198.633 M178.365 179.785 C 178.725 180.399,186.810 192.635,187.206 193.164 C 189.513 196.252,190.625 197.907,190.625 198.252 C 190.625 198.658,187.131 204.180,184.091 208.578 C 183.280 209.750,182.549 210.877,182.466 211.081 C 182.383 211.286,181.460 212.787,180.415 214.418 C 177.986 218.210,177.827 217.969,182.760 217.969 L 187.003 217.969 190.528 212.207 C 192.467 209.038,194.257 206.046,194.506 205.558 C 194.933 204.720,195.117 204.905,197.799 208.878 C 199.361 211.192,201.382 214.175,202.290 215.505 L 203.941 217.925 208.456 217.939 L 212.970 217.953 212.293 216.887 C 211.920 216.300,211.315 215.469,210.949 215.039 C 210.582 214.609,209.753 213.467,209.107 212.500 C 208.460 211.533,206.718 209.009,205.235 206.890 C 203.752 204.771,202.363 202.750,202.148 202.399 C 201.934 202.048,201.274 201.120,200.684 200.336 C 199.314 198.519,199.158 199.071,202.467 194.015 C 204.039 191.613,205.835 188.770,206.460 187.695 C 207.084 186.621,207.744 185.566,207.927 185.352 C 208.109 185.137,209.026 183.730,209.965 182.227 L 211.672 179.492 207.354 179.381 C 203.584 179.285,202.970 179.359,202.519 179.967 C 202.235 180.350,200.453 183.256,198.560 186.424 C 196.666 189.592,195.018 192.185,194.897 192.186 C 194.775 192.187,193.471 190.070,191.998 187.482 C 190.525 184.894,189.172 182.685,188.990 182.573 C 188.809 182.461,188.308 181.678,187.877 180.833 L 187.093 179.297 182.586 179.297 C 179.088 179.297,178.143 179.406,178.365 179.785 M216.797 182.840 C 216.797 186.276,216.824 186.382,217.676 186.313 C 218.159 186.274,220.620 186.261,223.145 186.285 L 227.734 186.328 227.734 201.953 L 227.734 217.578 231.641 217.578 L 235.547 217.578 235.547 201.953 L 235.547 186.328 240.918 186.329 L 246.289 186.330 246.164 182.813 L 246.038 179.297 231.418 179.297 L 216.797 179.297 216.797 182.840 M261.867 183.301 C 263.128 203.276,262.651 209.257,259.687 210.658 C 256.138 212.337,252.490 210.789,251.090 207.011 C 250.733 206.047,244.531 206.844,244.531 207.853 C 244.531 217.180,259.117 222.195,266.211 215.307 C 269.979 211.649,269.922 211.968,269.922 194.547 L 269.922 179.297 265.768 179.297 L 261.614 179.297 261.867 183.301 M277.344 198.633 L 277.344 217.969 290.836 217.969 L 304.327 217.969 304.214 214.551 L 304.102 211.133 294.727 211.029 L 285.352 210.924 285.427 206.341 L 285.502 201.758 293.532 201.888 L 301.563 202.019 301.563 198.261 L 301.563 194.503 293.527 194.547 L 285.492 194.591 285.422 190.264 L 285.352 185.937 294.629 185.937 L 303.906 185.938 303.906 182.617 L 303.906 179.297 290.625 179.297 L 277.344 179.297 277.344 198.633 M310.884 180.371 C 310.806 180.962,310.791 189.663,310.851 199.707 L 310.960 217.969 324.245 217.969 L 337.530 217.969 337.418 214.551 L 337.305 211.133 327.832 211.028 L 318.359 210.924 318.359 206.208 L 318.359 201.492 326.563 201.776 L 334.766 202.060 334.765 198.393 L 334.765 194.727 326.660 194.624 L 318.555 194.521 318.444 190.229 L 318.334 185.938 327.722 185.938 L 337.109 185.938 337.183 185.059 C 337.223 184.575,337.267 183.081,337.281 181.738 L 337.306 179.297 324.166 179.297 L 311.026 179.297 310.884 180.371 " stroke="none" fill="#f1f3f3" fill-rule="evenodd"></path><path id="path1" d="M0.000 200.000 L 0.000 400.000 200.000 400.000 L 400.000 400.000 400.000 200.000 L 400.000 0.000 200.000 0.000 L 0.000 0.000 0.000 200.000 M81.339 167.727 C 81.960 168.213,85.314 172.048,88.792 176.250 C 92.271 180.452,97.930 187.253,101.367 191.364 L 107.617 198.837 107.719 183.145 C 107.776 174.514,107.980 167.261,108.173 167.027 C 108.408 166.744,110.564 166.641,114.614 166.718 L 120.703 166.835 120.703 193.183 L 120.703 219.531 114.343 219.531 L 107.983 219.531 103.853 214.941 C 100.101 210.772,97.303 207.548,88.853 197.656 C 82.165 189.828,78.288 185.317,77.832 184.835 C 77.441 184.422,77.344 187.272,77.344 199.158 C 77.344 207.320,77.492 214.056,77.674 214.128 C 78.031 214.268,83.196 219.718,90.018 227.151 C 95.165 232.759,95.653 232.329,84.099 232.383 L 75.815 232.422 72.352 228.809 C 70.447 226.821,67.802 224.013,66.475 222.568 L 64.062 219.942 64.063 193.929 C 64.063 179.265,64.216 167.630,64.414 167.259 C 65.028 166.110,79.794 166.518,81.339 167.727 M148.040 179.785 C 148.267 180.054,149.580 182.031,150.956 184.180 C 152.332 186.328,153.825 188.613,154.274 189.258 C 156.092 191.871,157.813 194.628,157.813 194.929 C 157.813 195.104,157.946 195.306,158.109 195.378 C 158.500 195.550,163.281 203.072,163.281 203.516 C 163.281 203.705,163.477 203.981,163.716 204.129 C 164.033 204.325,164.112 201.000,164.005 191.847 L 163.860 179.297 167.867 179.297 L 171.875 179.297 171.875 198.641 L 171.875 217.985 168.062 217.938 L 164.249 217.892 162.179 214.512 C 161.041 212.654,159.900 210.793,159.644 210.377 C 159.389 209.961,157.239 206.621,154.868 202.955 C 152.496 199.289,149.993 195.410,149.306 194.336 L 148.056 192.383 148.051 205.176 L 148.047 217.969 144.141 217.969 L 140.234 217.969 140.234 198.633 L 140.234 179.297 143.930 179.297 C 146.405 179.297,147.762 179.458,148.040 179.785 M188.541 181.738 C 190.767 185.178,192.901 188.754,194.020 190.918 C 194.910 192.641,194.798 192.738,197.636 187.790 C 199.022 185.375,200.272 183.311,200.414 183.203 C 200.556 183.096,200.983 182.401,201.363 181.660 C 202.543 179.359,202.701 179.297,207.394 179.297 C 211.266 179.297,212.452 179.579,211.377 180.243 C 211.189 180.360,210.283 181.732,209.363 183.294 C 208.444 184.855,206.072 188.594,204.094 191.602 C 199.342 198.826,199.532 198.384,200.534 199.860 C 200.992 200.534,202.422 202.625,203.711 204.505 C 205.000 206.385,206.597 208.733,207.260 209.723 C 207.923 210.713,208.758 211.765,209.116 212.060 C 209.473 212.354,209.766 212.760,209.766 212.962 C 209.766 213.279,211.662 216.012,212.900 217.480 C 213.226 217.867,212.345 217.969,208.680 217.969 C 204.360 217.969,203.996 217.909,203.291 217.090 C 202.443 216.105,197.636 208.947,196.017 206.260 C 195.115 204.761,194.924 204.618,194.679 205.256 C 194.379 206.039,188.739 215.583,187.687 217.090 C 187.111 217.914,186.796 217.969,182.607 217.969 L 178.141 217.969 178.817 216.851 C 181.068 213.124,182.186 211.359,185.404 206.445 C 187.373 203.437,189.357 200.388,189.813 199.668 L 190.641 198.360 189.869 197.112 C 189.445 196.425,188.738 195.449,188.299 194.942 C 187.860 194.436,187.500 193.905,187.500 193.764 C 187.500 193.622,187.188 193.166,186.806 192.749 C 186.425 192.333,185.071 190.322,183.797 188.281 C 182.523 186.240,181.375 184.482,181.247 184.375 C 181.119 184.268,180.594 183.477,180.081 182.617 C 179.569 181.758,178.898 180.659,178.592 180.176 L 178.035 179.297 182.498 179.297 L 186.961 179.297 188.541 181.738 M246.484 182.813 L 246.484 186.328 241.016 186.328 L 235.547 186.328 235.547 201.953 L 235.547 217.578 231.641 217.578 L 227.734 217.578 227.734 201.976 L 227.734 186.374 223.009 186.253 C 220.409 186.187,218.201 186.265,218.102 186.427 C 217.296 187.738,216.406 185.733,216.406 182.603 L 216.406 179.297 231.445 179.297 L 246.484 179.297 246.484 182.813 M269.922 194.603 C 269.922 211.800,269.983 211.394,266.903 214.669 C 259.529 222.507,246.341 218.814,244.658 208.439 L 244.445 207.131 247.095 206.848 C 248.553 206.692,249.948 206.486,250.197 206.391 C 250.445 206.296,251.128 206.978,251.716 207.908 C 254.283 211.969,258.209 212.618,260.998 209.442 L 262.220 208.050 262.022 193.674 L 261.825 179.297 265.873 179.297 L 269.922 179.297 269.922 194.603 M303.906 182.617 L 303.906 185.938 294.727 185.938 L 285.547 185.938 285.547 190.234 L 285.547 194.531 293.555 194.531 L 301.563 194.531 301.563 198.285 L 301.563 202.039 293.555 201.753 L 285.547 201.467 285.547 206.195 L 285.547 210.923 294.824 211.028 L 304.102 211.133 304.214 214.551 L 304.327 217.969 290.836 217.969 L 277.344 217.969 277.344 198.633 L 277.344 179.297 290.625 179.297 L 303.906 179.297 303.906 182.617 M337.495 181.738 C 337.492 183.081,337.383 184.575,337.254 185.059 L 337.018 185.938 327.718 185.938 L 318.417 185.938 318.417 190.234 L 318.417 194.531 326.591 194.531 L 334.766 194.531 334.766 198.296 L 334.766 202.060 326.541 201.775 L 318.317 201.491 318.385 206.117 L 318.453 210.742 327.879 210.938 L 337.305 211.133 337.418 214.551 L 337.530 217.969 324.039 217.969 L 310.547 217.969 310.547 198.633 L 310.547 179.297 324.023 179.297 L 337.500 179.297 337.495 181.738 M89.844 228.638 C 89.844 228.705,90.415 229.276,91.113 229.907 L 92.383 231.055 91.236 229.785 C 90.166 228.602,89.844 228.336,89.844 228.638 " stroke="none" fill="#0c131b" fill-rule="evenodd"></path><path id="path2" d="M114.258 167.172 L 108.398 167.383 108.203 183.203 C 108.096 191.904,107.876 198.979,107.715 198.926 C 107.554 198.872,107.217 198.828,106.966 198.828 C 106.715 198.828,106.625 198.714,106.765 198.574 C 106.905 198.434,106.714 198.069,106.342 197.764 C 105.969 197.458,105.911 197.336,106.213 197.492 C 106.577 197.681,106.666 197.623,106.479 197.320 C 106.323 197.068,106.048 196.954,105.867 197.066 C 105.430 197.336,103.065 194.331,103.428 193.967 C 103.584 193.812,103.447 193.743,103.125 193.815 C 102.757 193.897,102.561 193.681,102.598 193.236 C 102.630 192.845,102.567 192.615,102.458 192.724 C 102.247 192.936,101.666 192.394,99.805 190.248 C 99.160 189.505,98.984 189.154,99.414 189.468 C 100.136 189.996,100.155 189.988,99.659 189.355 C 99.364 188.979,98.881 188.672,98.585 188.672 C 98.289 188.672,98.025 188.496,97.998 188.281 C 97.971 188.066,97.927 187.671,97.900 187.402 C 97.874 187.134,97.588 186.914,97.266 186.913 C 96.943 186.912,96.677 186.629,96.674 186.282 C 96.666 185.495,95.721 184.318,95.303 184.576 C 94.850 184.856,91.760 180.845,92.057 180.363 C 92.195 180.140,92.129 180.068,91.909 180.204 C 91.438 180.495,90.113 179.158,90.494 178.777 C 90.638 178.633,90.540 178.516,90.276 178.516 C 90.013 178.516,89.923 178.313,90.076 178.065 C 90.236 177.806,90.185 177.719,89.956 177.860 C 89.463 178.165,88.120 176.748,88.429 176.249 C 88.552 176.049,88.262 175.555,87.784 175.150 L 86.914 174.414 87.695 175.391 L 88.477 176.367 87.584 175.611 C 87.093 175.194,86.783 174.614,86.896 174.321 C 87.008 174.027,86.936 173.889,86.734 174.014 C 86.349 174.252,84.508 172.003,84.655 171.475 C 84.702 171.306,84.439 170.932,84.070 170.643 C 83.451 170.158,83.444 170.178,83.978 170.898 C 84.297 171.328,83.591 170.669,82.409 169.434 L 80.260 167.188 72.552 167.188 L 64.844 167.188 64.844 193.583 C 64.844 216.596,64.919 220.053,65.433 220.567 C 65.758 220.891,65.940 221.290,65.839 221.454 C 65.738 221.617,66.308 222.350,67.105 223.083 L 68.555 224.414 67.188 222.852 L 65.820 221.289 67.294 222.644 C 68.105 223.389,68.678 224.233,68.568 224.520 C 68.458 224.806,68.513 224.951,68.689 224.843 C 69.153 224.556,72.733 228.303,72.373 228.699 C 72.206 228.882,72.271 228.917,72.516 228.777 C 72.763 228.636,73.597 229.225,74.383 230.095 L 75.804 231.668 83.986 231.625 C 88.486 231.601,92.391 231.709,92.666 231.864 C 92.940 232.019,92.469 231.417,91.620 230.526 C 90.039 228.867,89.326 228.367,90.284 229.590 C 90.769 230.208,90.756 230.223,90.141 229.741 C 89.767 229.448,89.544 229.076,89.644 228.914 C 89.906 228.490,88.470 227.285,88.119 227.636 C 87.958 227.797,87.880 227.754,87.947 227.539 C 88.077 227.125,87.178 226.077,83.398 222.238 C 82.109 220.929,81.055 219.704,81.055 219.516 C 81.055 219.328,80.773 218.947,80.428 218.669 C 80.084 218.391,79.509 217.725,79.151 217.188 C 78.793 216.650,78.301 216.211,78.057 216.211 C 77.283 216.211,77.206 214.959,77.060 199.842 C 76.901 183.298,76.886 183.388,79.290 185.736 C 80.145 186.571,80.789 187.310,80.720 187.379 C 80.652 187.447,81.402 188.361,82.388 189.409 C 85.592 192.816,86.001 193.332,85.781 193.686 C 85.663 193.879,85.957 194.367,86.435 194.772 C 87.297 195.501,87.299 195.501,86.719 194.706 C 86.396 194.266,86.692 194.523,87.375 195.278 C 88.058 196.033,88.585 196.825,88.546 197.038 C 88.508 197.251,88.686 197.433,88.941 197.443 C 89.353 197.459,92.486 200.781,92.090 200.781 C 92.002 200.781,92.691 201.575,93.620 202.544 C 94.549 203.514,95.266 204.524,95.213 204.790 C 95.160 205.056,95.316 205.236,95.559 205.191 C 95.802 205.146,96.313 205.454,96.694 205.875 C 97.075 206.296,97.309 206.641,97.214 206.641 C 97.119 206.641,98.146 207.827,99.495 209.277 C 100.844 210.728,101.950 212.144,101.951 212.425 C 101.952 212.707,102.129 212.828,102.344 212.695 C 102.685 212.485,102.892 212.955,102.796 213.723 C 102.779 213.859,103.154 214.298,103.629 214.700 L 104.492 215.430 103.732 214.453 C 103.314 213.916,103.812 214.305,104.838 215.317 C 105.977 216.440,106.593 217.340,106.417 217.624 C 106.247 217.899,106.295 217.987,106.536 217.838 C 106.982 217.563,107.942 218.490,107.583 218.849 C 107.461 218.971,110.277 219.094,113.842 219.121 L 120.323 219.171 120.307 192.984 C 120.298 178.581,120.252 166.834,120.204 166.879 C 120.156 166.924,117.480 167.055,114.258 167.172 M64.196 171.289 C 64.198 173.008,64.267 173.662,64.349 172.744 C 64.432 171.825,64.430 170.419,64.346 169.619 C 64.263 168.819,64.195 169.570,64.196 171.289 M64.188 184.766 C 64.188 186.162,64.258 186.733,64.345 186.035 C 64.432 185.337,64.432 184.194,64.345 183.496 C 64.258 182.798,64.188 183.369,64.188 184.766 M64.153 200.000 C 64.153 200.752,64.234 201.060,64.332 200.684 C 64.430 200.308,64.430 199.692,64.332 199.316 C 64.234 198.940,64.153 199.248,64.153 200.000 M64.180 204.688 C 64.180 205.869,64.253 206.353,64.342 205.762 C 64.432 205.171,64.432 204.204,64.342 203.613 C 64.253 203.022,64.180 203.506,64.180 204.688 M64.201 212.305 C 64.200 214.238,64.266 215.079,64.348 214.172 C 64.430 213.265,64.431 211.683,64.350 210.656 C 64.269 209.629,64.202 210.371,64.201 212.305 M80.893 217.820 C 81.412 218.490,81.915 218.968,82.011 218.882 C 82.107 218.796,81.682 218.248,81.068 217.664 L 79.950 216.602 80.893 217.820 " stroke="none" fill="#0482f0" fill-rule="evenodd"></path><path id="path3" d="M64.714 167.057 C 64.570 167.201,64.453 179.183,64.453 193.685 L 64.453 220.051 66.504 222.340 C 67.632 223.598,70.140 226.297,72.077 228.337 L 75.600 232.047 84.130 231.941 L 92.661 231.836 91.747 231.055 C 91.073 230.478,90.972 230.452,91.363 230.957 C 91.864 231.603,91.448 231.639,83.739 231.607 L 75.586 231.573 70.703 226.296 C 68.018 223.394,65.601 220.785,65.332 220.499 C 64.951 220.093,64.844 214.160,64.844 193.583 L 64.844 167.188 72.458 167.188 C 81.444 167.188,80.180 166.576,85.997 173.730 C 88.137 176.362,89.972 178.516,90.075 178.516 C 90.347 178.516,89.517 177.045,89.157 176.890 C 88.989 176.817,87.716 175.352,86.327 173.633 C 84.938 171.914,83.028 169.673,82.082 168.652 L 80.362 166.797 72.668 166.797 C 68.436 166.797,64.857 166.914,64.714 167.057 M108.073 167.057 C 107.930 167.201,107.813 174.402,107.813 183.061 C 107.813 197.877,107.772 198.791,107.129 198.584 C 106.558 198.400,106.541 198.431,107.028 198.775 C 108.118 199.544,108.194 198.602,108.296 182.993 L 108.398 167.383 114.258 167.383 L 120.117 167.383 120.218 193.262 L 120.318 219.141 114.325 219.141 L 108.331 219.141 106.850 217.480 C 103.488 213.712,102.344 212.535,102.344 212.845 C 102.344 213.025,102.915 213.782,103.613 214.527 C 104.312 215.273,105.586 216.701,106.445 217.702 L 108.008 219.521 114.355 219.526 L 120.703 219.531 120.703 193.401 C 120.703 169.934,120.640 167.247,120.085 167.034 C 119.243 166.711,108.398 166.732,108.073 167.057 M92.049 181.152 C 93.080 182.388,94.546 184.102,95.305 184.961 C 96.065 185.820,97.083 187.034,97.567 187.657 C 98.052 188.281,98.545 188.694,98.664 188.575 C 98.783 188.457,98.547 188.035,98.140 187.637 C 97.733 187.239,96.466 185.771,95.324 184.375 C 94.182 182.979,93.133 181.748,92.992 181.641 C 92.851 181.533,92.337 180.874,91.849 180.176 C 91.361 179.478,90.785 178.906,90.568 178.906 C 90.351 178.906,91.018 179.917,92.049 181.152 M78.434 185.386 C 79.371 186.754,80.401 187.698,80.666 187.433 C 80.765 187.334,80.117 186.562,79.226 185.717 C 77.761 184.326,77.686 184.294,78.434 185.386 M77.130 199.219 C 77.130 207.275,77.182 210.571,77.246 206.543 C 77.309 202.515,77.309 195.923,77.246 191.895 C 77.182 187.866,77.130 191.162,77.130 199.219 M80.870 187.927 C 80.859 188.175,82.192 189.773,85.385 193.339 C 86.478 194.559,88.296 196.733,89.425 198.169 C 90.554 199.606,91.670 200.781,91.906 200.781 C 92.141 200.781,91.898 200.298,91.365 199.707 C 89.592 197.740,87.322 195.111,85.742 193.193 C 83.553 190.537,80.884 187.651,80.870 187.927 M99.989 190.394 C 100.686 191.233,101.409 192.112,101.595 192.347 C 105.090 196.745,107.471 199.287,106.019 197.070 C 105.667 196.533,105.223 196.094,105.033 196.094 C 104.843 196.094,104.688 195.889,104.688 195.638 C 104.688 195.168,104.271 194.676,100.773 191.016 C 99.644 189.834,99.291 189.554,99.989 190.394 M94.418 203.906 C 95.646 205.410,96.803 206.641,96.988 206.641 C 97.173 206.641,96.231 205.410,94.895 203.906 C 93.558 202.402,92.401 201.172,92.324 201.172 C 92.247 201.172,93.189 202.402,94.418 203.906 M97.279 207.193 C 97.271 207.390,98.320 208.649,99.609 209.992 C 100.898 211.334,101.947 212.316,101.940 212.173 C 101.919 211.747,97.293 206.805,97.279 207.193 " stroke="none" fill="#05aaf8" fill-rule="evenodd"></path><path id="path4" d="M163.867 191.894 C 163.867 198.929,163.999 204.686,164.160 204.687 C 164.514 204.688,164.481 184.285,164.122 181.250 C 163.982 180.068,163.867 184.858,163.867 191.894 M216.545 182.617 C 216.544 184.551,216.610 185.391,216.692 184.484 C 216.774 183.578,216.775 181.996,216.694 180.969 C 216.613 179.942,216.546 180.684,216.545 182.617 M246.232 182.617 C 246.231 184.551,246.297 185.391,246.379 184.484 C 246.461 183.578,246.462 181.996,246.381 180.969 C 246.301 179.942,246.234 180.684,246.232 182.617 M310.727 200.195 C 310.727 210.078,310.778 214.065,310.840 209.055 C 310.901 204.045,310.901 195.959,310.839 191.086 C 310.777 186.214,310.727 190.313,310.727 200.195 M262.275 199.219 C 262.275 203.838,262.332 205.728,262.401 203.418 C 262.470 201.108,262.470 197.329,262.401 195.020 C 262.332 192.710,262.275 194.600,262.275 199.219 M331.353 194.812 C 331.947 194.901,332.826 194.899,333.306 194.806 C 333.787 194.714,333.301 194.640,332.227 194.643 C 331.152 194.646,330.759 194.722,331.353 194.812 M64.153 207.813 C 64.153 208.564,64.234 208.872,64.332 208.496 C 64.430 208.120,64.430 207.505,64.332 207.129 C 64.234 206.753,64.153 207.061,64.153 207.813 M99.219 209.888 C 99.219 209.955,99.790 210.526,100.488 211.157 L 101.758 212.305 100.611 211.035 C 99.541 209.852,99.219 209.586,99.219 209.888 M77.508 214.709 C 77.560 215.064,77.976 215.657,78.433 216.027 C 78.890 216.397,79.179 216.785,79.075 216.889 C 78.971 216.993,79.637 217.757,80.556 218.587 C 81.475 219.417,82.164 220.163,82.087 220.245 C 81.833 220.517,85.280 223.798,85.607 223.596 C 85.784 223.486,85.836 223.637,85.724 223.930 C 85.611 224.223,85.907 224.804,86.381 225.220 C 86.856 225.636,87.098 225.730,86.921 225.428 C 86.703 225.058,86.745 224.970,87.049 225.158 C 87.297 225.311,87.500 225.618,87.500 225.840 C 87.500 226.488,93.345 231.981,93.598 231.570 C 93.725 231.366,92.624 229.943,91.152 228.409 C 87.944 225.065,87.956 225.078,84.807 221.538 C 83.434 219.995,82.224 218.818,82.119 218.923 C 82.014 219.028,81.585 218.679,81.167 218.147 C 80.748 217.615,80.217 217.297,79.986 217.439 C 79.720 217.604,79.682 217.512,79.882 217.189 C 80.081 216.867,79.931 216.483,79.477 216.152 C 79.081 215.862,78.906 215.625,79.087 215.625 C 79.269 215.625,79.100 215.273,78.711 214.844 C 77.851 213.894,77.380 213.841,77.508 214.709 M64.169 217.188 C 64.169 218.154,64.245 218.550,64.338 218.066 C 64.431 217.583,64.431 216.792,64.338 216.309 C 64.245 215.825,64.169 216.221,64.169 217.188 M255.111 218.503 C 255.200 218.582,255.977 218.753,256.836 218.884 C 257.925 219.050,258.162 219.015,257.617 218.768 C 256.867 218.428,254.775 218.207,255.111 218.503 M75.339 232.137 C 75.505 232.302,79.496 232.390,84.207 232.331 L 92.773 232.225 83.906 232.031 C 79.028 231.924,75.173 231.971,75.339 232.137 " stroke="none" fill="#4e6174" fill-rule="evenodd"></path></g></svg>